REM DIRINDEX 1\2,1\3,1\4,1\5,1\6
REM DIRNAME folder01,folder02,folder03,folder04,folder05,folder06
TITLE ""
FILE "DISC1Track03.mp3" MP3
  TRACK 01 AUDIO
    TITLE "0:"
    INDEX 01 00:00:00
  TRACK 02 AUDIO
    TITLE "3:cjc129_0034"
    INDEX 01 00:00:05
  TRACK 03 AUDIO
    TITLE "0:"
    INDEX 01 00:01:19
  TRACK 04 AUDIO
    TITLE "5:cjc129_0035"
    INDEX 01 00:01:54
  TRACK 05 AUDIO
    TITLE "0:"
    INDEX 01 00:05:32
  TRACK 06 AUDIO
    TITLE "4:cjc129_0036"
    INDEX 01 00:06:24
  TRACK 07 AUDIO
    TITLE "0:"
    INDEX 01 00:07:39
  TRACK 08 AUDIO
    TITLE "6:cjc129_0037"
    INDEX 01 00:07:72
  TRACK 09 AUDIO
    TITLE "0:"
    INDEX 01 00:13:41
  TRACK 10 AUDIO
    TITLE "3:cjc129_0038"
    INDEX 01 00:15:15
  TRACK 11 AUDIO
    TITLE "0:"
    INDEX 01 00:16:40
  TRACK 12 AUDIO
    TITLE "5:cjc129_0039"
    INDEX 01 00:16:71
  TRACK 13 AUDIO
    TITLE "0:"
    INDEX 01 00:19:42
  TRACK 14 AUDIO
    TITLE "4:cjc129_0040"
    INDEX 01 00:20:34
  TRACK 15 AUDIO
    TITLE "0:"
    INDEX 01 00:21:58
  TRACK 16 AUDIO
    TITLE "6:cjc129_0041"
    INDEX 01 00:22:15
  TRACK 17 AUDIO
    TITLE "0:"
    INDEX 01 00:26:50
  TRACK 18 AUDIO
    TITLE "3:cjc129_0042"
    INDEX 01 00:28:29
  TRACK 19 AUDIO
    TITLE "0:"
    INDEX 01 00:31:45
  TRACK 20 AUDIO
    TITLE "5:cjc129_0043"
    INDEX 01 00:32:01
  TRACK 21 AUDIO
    TITLE "0:"
    INDEX 01 00:33:30
  TRACK 22 AUDIO
    TITLE "4:cjc129_0044"
    INDEX 01 00:34:20
  TRACK 23 AUDIO
    TITLE "0:"
    INDEX 01 00:37:34
  TRACK 24 AUDIO
    TITLE "6:cjc129_0045"
    INDEX 01 00:37:67
  TRACK 25 AUDIO
    TITLE "0:"
    INDEX 01 00:43:72
  TRACK 26 AUDIO
    TITLE "3:cjc129_0046"
    INDEX 01 00:45:47
  TRACK 27 AUDIO
    TITLE "0:"
    INDEX 01 00:46:62
  TRACK 28 AUDIO
    TITLE "5:cjc129_0047"
    INDEX 01 00:48:32
  TRACK 29 AUDIO
    TITLE "0:"
    INDEX 01 00:52:65
  TRACK 30 AUDIO
    TITLE "4:cjc129_0048"
    INDEX 01 00:53:58
  TRACK 31 AUDIO
    TITLE "0:"
    INDEX 01 00:54:72
  TRACK 32 AUDIO
    TITLE "6:cjc129_0049"
    INDEX 01 00:55:30
  TRACK 33 AUDIO
    TITLE "0:"
    INDEX 01 01:00:37
  TRACK 34 AUDIO
    TITLE "3:cjc129_0050"
    INDEX 01 01:02:14
  TRACK 35 AUDIO
    TITLE "0:"
    INDEX 01 01:03:29
  TRACK 36 AUDIO
    TITLE "5:cjc129_0051"
    INDEX 01 01:04:60
  TRACK 37 AUDIO
    TITLE "0:"
    INDEX 01 01:06:08
  TRACK 38 AUDIO
    TITLE "4:cjc129_0052"
    INDEX 01 01:06:71
  TRACK 39 AUDIO
    TITLE "0:"
    INDEX 01 01:08:11
  TRACK 40 AUDIO
    TITLE "6:cjc129_0053"
    INDEX 01 01:08:42
  TRACK 41 AUDIO
    TITLE "0:"
    INDEX 01 01:13:14
  TRACK 42 AUDIO
    TITLE "3:cjc129_0054"
    INDEX 01 01:14:65
  TRACK 43 AUDIO
    TITLE "0:"
    INDEX 01 01:15:72
  TRACK 44 AUDIO
    TITLE "5:cjc129_0055"
    INDEX 01 01:16:30
  TRACK 45 AUDIO
    TITLE "0:"
    INDEX 01 01:18:00
  TRACK 46 AUDIO
    TITLE "4:cjc129_0056"
    INDEX 01 01:18:66
  TRACK 47 AUDIO
    TITLE "0:"
    INDEX 01 01:20:00
  TRACK 48 AUDIO
    TITLE "6:cjc129_0057"
    INDEX 01 01:20:32
  TRACK 49 AUDIO
    TITLE "0:"
    INDEX 01 01:23:36
  TRACK 50 AUDIO
    TITLE "3:cjc129_0058"
    INDEX 01 01:25:13
  TRACK 51 AUDIO
    TITLE "0:"
    INDEX 01 01:26:30
  TRACK 52 AUDIO
    TITLE "5:cjc129_0059"
    INDEX 01 01:26:62
  TRACK 53 AUDIO
    TITLE "0:"
    INDEX 01 01:31:02
  TRACK 54 AUDIO
    TITLE "4:cjc129_0060"
    INDEX 01 01:31:67
  TRACK 55 AUDIO
    TITLE "0:"
    INDEX 01 01:33:09
  TRACK 56 AUDIO
    TITLE "6:cjc129_0061"
    INDEX 01 01:33:40
  TRACK 57 AUDIO
    TITLE "0:"
    INDEX 01 01:38:30
  TRACK 58 AUDIO
    TITLE "3:cjc129_0062"
    INDEX 01 01:40:05
  TRACK 59 AUDIO
    TITLE "0:"
    INDEX 01 01:41:32
  TRACK 60 AUDIO
    TITLE "5:cjc129_0063"
    INDEX 01 01:41:63
  TRACK 61 AUDIO
    TITLE "0:"
    INDEX 01 01:43:72
  TRACK 62 AUDIO
    TITLE "4:cjc129_0064"
    INDEX 01 01:44:62
  TRACK 63 AUDIO
    TITLE "0:"
    INDEX 01 01:46:16
  TRACK 64 AUDIO
    TITLE "6:cjc129_0065"
    INDEX 01 01:46:47
  TRACK 65 AUDIO
    TITLE "0:"
    INDEX 01 01:51:09
  TRACK 66 AUDIO
    TITLE "3:cjc129_0066"
    INDEX 01 01:52:61
  TRACK 67 AUDIO
    TITLE "0:"
    INDEX 01 01:54:13
  TRACK 68 AUDIO
    TITLE "5:cjc129_0067"
    INDEX 01 01:54:44
  TRACK 69 AUDIO
    TITLE "0:"
    INDEX 01 01:56:14
  TRACK 70 AUDIO
    TITLE "4:cjc129_0068"
    INDEX 01 01:57:06
  TRACK 71 AUDIO
    TITLE "0:"
    INDEX 01 01:58:32
  TRACK 72 AUDIO
    TITLE "6:cjc129_0069"
    INDEX 01 01:58:68
  TRACK 73 AUDIO
    TITLE "0:"
    INDEX 01 02:04:25
